<svg width="77" height="24" viewBox="0 0 77 24" fill="none" xmlns="http://www.w3.org/2000/svg">
<path d="M6.88 10.608H5.296C5.248 10.296 5.128 10.076 4.936 9.948C4.752 9.82 4.48 9.756 4.12 9.756C3.816 9.756 3.58 9.812 3.412 9.924C3.244 10.028 3.16 10.176 3.16 10.368C3.16 10.592 3.256 10.748 3.448 10.836C3.64 10.924 3.984 11.02 4.48 11.124C4.568 11.14 4.632 11.152 4.672 11.16C4.96 11.216 5.188 11.268 5.356 11.316C5.532 11.356 5.744 11.428 5.992 11.532C6.24 11.628 6.432 11.74 6.568 11.868C6.704 11.988 6.824 12.152 6.928 12.36C7.032 12.568 7.084 12.808 7.084 13.08C7.084 13.728 6.832 14.24 6.328 14.616C5.824 14.992 5.132 15.18 4.252 15.18C3.412 15.18 2.72 15 2.176 14.64C1.632 14.28 1.356 13.728 1.348 12.984H2.968C3.024 13.672 3.464 14.016 4.288 14.016C4.632 14.016 4.904 13.948 5.104 13.812C5.312 13.668 5.416 13.48 5.416 13.248C5.416 13.016 5.324 12.852 5.14 12.756C4.956 12.66 4.616 12.556 4.12 12.444C4.08 12.436 4.048 12.428 4.024 12.42C3.968 12.404 3.844 12.376 3.652 12.336C3.46 12.296 3.324 12.268 3.244 12.252C3.172 12.228 3.048 12.192 2.872 12.144C2.704 12.096 2.58 12.052 2.5 12.012C2.42 11.964 2.312 11.908 2.176 11.844C2.048 11.772 1.952 11.696 1.888 11.616C1.824 11.536 1.752 11.444 1.672 11.34C1.6 11.228 1.548 11.104 1.516 10.968C1.492 10.832 1.48 10.684 1.48 10.524C1.48 9.916 1.716 9.448 2.188 9.12C2.66 8.792 3.328 8.628 4.192 8.628C4.968 8.628 5.604 8.788 6.1 9.108C6.596 9.428 6.856 9.928 6.88 10.608ZM13.9253 15H12.1973V11.388C12.1973 10.948 12.1253 10.616 11.9813 10.392C11.8373 10.16 11.5573 10.044 11.1413 10.044C10.2453 10.044 9.79731 10.588 9.79731 11.676V15H8.10531V8.808H9.72531V9.672C10.2373 8.984 10.9213 8.64 11.7773 8.64C12.4413 8.64 12.9653 8.832 13.3493 9.216C13.7333 9.6 13.9253 10.148 13.9253 10.86V15ZM20.9666 15H19.2386C19.1826 14.84 19.1426 14.64 19.1186 14.4C18.5986 14.92 17.9306 15.18 17.1146 15.18C16.4266 15.18 15.8866 15.016 15.4946 14.688C15.1026 14.352 14.9066 13.892 14.9066 13.308C14.9066 13.044 14.9386 12.812 15.0026 12.612C15.0746 12.412 15.1866 12.244 15.3386 12.108C15.4986 11.972 15.6466 11.86 15.7826 11.772C15.9266 11.684 16.1226 11.612 16.3706 11.556C16.6186 11.5 16.8186 11.46 16.9706 11.436C17.1226 11.404 17.3346 11.372 17.6066 11.34C18.2066 11.26 18.6066 11.176 18.8066 11.088C19.0146 11 19.1186 10.836 19.1186 10.596C19.1186 10.044 18.7466 9.768 18.0026 9.768C17.6106 9.768 17.3226 9.84 17.1386 9.984C16.9546 10.12 16.8346 10.364 16.7786 10.716H15.1826C15.2786 9.324 16.2346 8.628 18.0506 8.628C19.8506 8.628 20.7506 9.3 20.7506 10.644V13.32C20.7506 14.104 20.8226 14.664 20.9666 15ZM19.1066 11.988C18.9066 12.108 18.5066 12.216 17.9066 12.312C17.4026 12.392 17.0746 12.492 16.9226 12.612C16.7466 12.764 16.6586 12.972 16.6586 13.236C16.6586 13.492 16.7386 13.696 16.8986 13.848C17.0666 13.992 17.2986 14.064 17.5946 14.064C18.0506 14.064 18.4146 13.944 18.6866 13.704C18.9666 13.456 19.1066 13.116 19.1066 12.684V11.988ZM25.5052 8.808V9.96H24.2452V12.876C24.2452 13.06 24.2492 13.196 24.2572 13.284C24.2652 13.364 24.2932 13.448 24.3412 13.536C24.3892 13.624 24.4612 13.684 24.5572 13.716C24.6612 13.74 24.8052 13.752 24.9892 13.752C25.1972 13.752 25.3692 13.744 25.5052 13.728V15.024C25.0892 15.056 24.7452 15.072 24.4732 15.072C23.7292 15.072 23.2212 14.944 22.9492 14.688C22.6852 14.424 22.5532 13.92 22.5532 13.176V9.96H21.5212V8.808H22.5532V6.936H24.2452V8.808H25.5052ZM32.22 12.612C32.116 13.412 31.8 14.036 31.272 14.484C30.752 14.932 30.08 15.156 29.256 15.156C28.304 15.156 27.54 14.864 26.964 14.28C26.388 13.696 26.1 12.92 26.1 11.952C26.1 10.952 26.388 10.148 26.964 9.54C27.548 8.932 28.32 8.628 29.28 8.628C30.104 8.628 30.776 8.84 31.296 9.264C31.816 9.68 32.112 10.248 32.184 10.968H30.516C30.388 10.256 29.98 9.9 29.292 9.9C28.828 9.9 28.464 10.08 28.2 10.44C27.944 10.792 27.816 11.284 27.816 11.916C27.816 12.532 27.94 13.012 28.188 13.356C28.444 13.692 28.8 13.86 29.256 13.86C30 13.86 30.44 13.444 30.576 12.612H32.22ZM34.8986 6.456V9.636C35.3866 8.98 36.0386 8.652 36.8546 8.652C38.3026 8.652 39.0266 9.416 39.0266 10.944V15H37.3226V11.352C37.3226 10.928 37.2466 10.604 37.0946 10.38C36.9426 10.156 36.6546 10.044 36.2306 10.044C35.7186 10.044 35.3666 10.208 35.1746 10.536C34.9906 10.864 34.8986 11.3 34.8986 11.844V15H33.2186V6.456H34.8986ZM49.4197 15H47.6917C47.6357 14.84 47.5957 14.64 47.5717 14.4C47.0517 14.92 46.3837 15.18 45.5677 15.18C44.8797 15.18 44.3397 15.016 43.9477 14.688C43.5557 14.352 43.3597 13.892 43.3597 13.308C43.3597 13.044 43.3917 12.812 43.4557 12.612C43.5277 12.412 43.6397 12.244 43.7917 12.108C43.9517 11.972 44.0997 11.86 44.2357 11.772C44.3797 11.684 44.5757 11.612 44.8237 11.556C45.0717 11.5 45.2717 11.46 45.4237 11.436C45.5757 11.404 45.7877 11.372 46.0597 11.34C46.6597 11.26 47.0597 11.176 47.2597 11.088C47.4677 11 47.5717 10.836 47.5717 10.596C47.5717 10.044 47.1997 9.768 46.4557 9.768C46.0637 9.768 45.7757 9.84 45.5917 9.984C45.4077 10.12 45.2877 10.364 45.2317 10.716H43.6357C43.7317 9.324 44.6877 8.628 46.5037 8.628C48.3037 8.628 49.2037 9.3 49.2037 10.644V13.32C49.2037 14.104 49.2757 14.664 49.4197 15ZM47.5597 11.988C47.3597 12.108 46.9597 12.216 46.3597 12.312C45.8557 12.392 45.5277 12.492 45.3757 12.612C45.1997 12.764 45.1117 12.972 45.1117 13.236C45.1117 13.492 45.1917 13.696 45.3517 13.848C45.5197 13.992 45.7517 14.064 46.0477 14.064C46.5037 14.064 46.8677 13.944 47.1397 13.704C47.4197 13.456 47.5597 13.116 47.5597 12.684V11.988Z" fill="#191919"/>
<path d="M60.875 2.625H75.875V22.875H60.875V2.625Z" fill="#00AF80"/>
<path d="M71.375 2.625L74.375 5.625H70.625C70.4263 5.62441 70.2358 5.5452 70.0953 5.40467C69.9548 5.26415 69.8756 5.07373 69.875 4.875V1.125L71.375 2.625Z" fill="#00AF80"/>
<path d="M74.375 5.625V21.375H59.375V1.125H69.875V4.875C69.8756 5.07373 69.9548 5.26415 70.0953 5.40467C70.2358 5.5452 70.4263 5.62441 70.625 5.625H74.375Z" fill="#69E781"/>
<path d="M54.125 8.25H72.875V15.75H54.125V8.25Z" fill="#E2FFE2"/>
<path d="M75.875 2.25H71.5303L70.1401 0.859875C70.0698 0.789544 69.9744 0.750021 69.875 0.75H59.375C59.2755 0.75 59.1802 0.789509 59.1098 0.859835C59.0395 0.930161 59 1.02554 59 1.125V7.875H54.125C54.0255 7.875 53.9302 7.91451 53.8598 7.98483C53.7895 8.05516 53.75 8.15054 53.75 8.25V15.75C53.75 15.8495 53.7895 15.9448 53.8598 16.0152C53.9302 16.0855 54.0255 16.125 54.125 16.125H59V21.375C59 21.4745 59.0395 21.5698 59.1098 21.6402C59.1802 21.7105 59.2755 21.75 59.375 21.75H60.5V22.875C60.5 22.9745 60.5395 23.0698 60.6098 23.1402C60.6802 23.2105 60.7755 23.25 60.875 23.25H75.875C75.9745 23.25 76.0698 23.2105 76.1402 23.1402C76.2105 23.0698 76.25 22.9745 76.25 22.875V2.625C76.25 2.52554 76.2105 2.43016 76.1402 2.35984C76.0698 2.28951 75.9745 2.25 75.875 2.25ZM70.25 2.03025L73.4697 5.25H70.625C70.5255 5.25 70.4302 5.21049 70.3598 5.14016C70.2895 5.06984 70.25 4.97446 70.25 4.875V2.03025ZM54.5 8.625H72.5V15.375H54.5V8.625ZM59.75 16.125H72.875C72.9745 16.125 73.0698 16.0855 73.1402 16.0152C73.2105 15.9448 73.25 15.8495 73.25 15.75V8.25C73.25 8.15054 73.2105 8.05516 73.1402 7.98483C73.0698 7.91451 72.9745 7.875 72.875 7.875H59.75V1.5H69.5V4.875C69.5 5.17337 69.6185 5.45952 69.8295 5.6705C70.0405 5.88147 70.3266 6 70.625 6H74V21H59.75V16.125ZM75.5 22.5H61.25V21.75H74.375C74.4745 21.75 74.5698 21.7105 74.6402 21.6402C74.7105 21.5698 74.75 21.4745 74.75 21.375V5.625C74.75 5.52555 74.7105 5.43018 74.6401 5.35988L72.2803 3H75.5V22.5Z" fill="black"/>
<path d="M61.625 10.125H63.125V13.875H61.625V14.625H65.375V13.875H63.875V10.125H65.375V9.375H61.625V10.125Z" fill="black"/>
<path d="M66.125 9.75V14.625H66.875V12.375H69.125V11.625H66.875V10.125H69.875V9.375H66.5C66.4005 9.375 66.3052 9.41451 66.2348 9.48483C66.1645 9.55516 66.125 9.65054 66.125 9.75Z" fill="black"/>
<path d="M60.5 9.375H57.5C57.4005 9.375 57.3052 9.41451 57.2348 9.48483C57.1645 9.55516 57.125 9.65054 57.125 9.75V14.25C57.125 14.3495 57.1645 14.4448 57.2348 14.5152C57.3052 14.5855 57.4005 14.625 57.5 14.625H60.5C60.5995 14.625 60.6948 14.5855 60.7652 14.5152C60.8355 14.4448 60.875 14.3495 60.875 14.25V12C60.875 11.9005 60.8355 11.8052 60.7652 11.7348C60.6948 11.6645 60.5995 11.625 60.5 11.625H59V12.375H60.125V13.875H57.875V10.125H60.125V10.875H60.875V9.75C60.875 9.65054 60.8355 9.55516 60.7652 9.48483C60.6948 9.41451 60.5995 9.375 60.5 9.375Z" fill="black"/>
</svg>
